<svg id="Livello_1" data-name="Livello 1" xmlns="http://www.w3.org/2000/svg" viewBox="0 0 507.07 153.55">
  <defs>
    <style>
      .cls-1, .cls-2{fill:#fff;}
      .cls-1{fill-rule:evenodd;}
      .cls-3{fill:#bdbcbc;stroke:#bdbcbc;stroke-width:2.56px;}
      .cls-3,.cls-4,.cls-5{stroke-miterlimit:3.86;}
      .cls-4{fill:#e30613;stroke:#e30613;}
      .cls-4,.cls-5{stroke-width:1.92px;}
      .cls-5{fill:#0077be;stroke:#0077be;}
    </style>
  </defs>
  <title>logoregn</title>
  <path class="cls-1"
        d="M-55.56,63.82V80.23q0,5.32.93,6.61a4.33,4.33,0,0,0,3.82,1.83h1.73V90.2H-68.39V88.66h1.7a4.26,4.26,0,0,0,4.09-2.33q.66-1.29.66-6.11V43.83q0-5.32-.9-6.61a4.42,4.42,0,0,0-3.86-1.83h-1.7V33.86h16.52a23.61,23.61,0,0,1,9.54,1.58,13.52,13.52,0,0,1,5.88,5.24,15.78,15.78,0,0,1,2.39,8.77q0,6.9-3.66,11.22T-48,65a23.18,23.18,0,0,1-3.52-.29,37.36,37.36,0,0,1-4.06-.87Zm0-2.37q1.76.42,3.13.62a15.73,15.73,0,0,0,2.33.21,7.29,7.29,0,0,0,6-3.32,14.09,14.09,0,0,0,2.53-8.68,18.74,18.74,0,0,0-1.2-6.77,9.74,9.74,0,0,0-3.39-4.7,8.34,8.34,0,0,0-5-1.58,16,16,0,0,0-4.36.79V61.45Z"
        transform="translate(234 56)"/>
  <path class="cls-2"
        d="M-10.65,88.66V90.2H-30V88.66h1.6a4.41,4.41,0,0,0,4.06-2q.8-1.33.8-6.4V43.83a23.15,23.15,0,0,0-.43-5.65,3.55,3.55,0,0,0-1.36-1.79,5.35,5.35,0,0,0-3.06-1H-30V33.86h19.31v1.54h-1.63a4.38,4.38,0,0,0-4,2q-.83,1.33-.83,6.4v36.4a23.08,23.08,0,0,0,.43,5.65,3.48,3.48,0,0,0,1.4,1.79,5.2,5.2,0,0,0,3,1Z"
        transform="translate(234 56)"/>
  <path class="cls-2"
        d="M5.24,36.93V59.2h9.91q3.85,0,5.15-1.45Q22,55.84,22.23,51h1.23V70.63H22.23a26.13,26.13,0,0,0-.93-5.28,4.73,4.73,0,0,0-2-2.29,8.27,8.27,0,0,0-4.19-.83H5.24V80.81a21.77,21.77,0,0,0,.27,4.57,2.61,2.61,0,0,0,.93,1.29A4.83,4.83,0,0,0,9,87.13h7.65a16.74,16.74,0,0,0,5.55-.66,8.27,8.27,0,0,0,3.32-2.62,33.22,33.22,0,0,0,4.22-7.77H31L27.15,90.2H-7.59V88.66H-6a5.35,5.35,0,0,0,3-1,3.27,3.27,0,0,0,1.43-2,23.27,23.27,0,0,0,.4-5.44V43.66q0-5.36-.86-6.61a4.58,4.58,0,0,0-4-1.66h-1.6V33.86H27.15l.5,12.34h-1.3a22.49,22.49,0,0,0-1.56-6.11,5.67,5.67,0,0,0-2.49-2.53,12.23,12.23,0,0,0-4.69-.62Z"
        transform="translate(234 56)"/>
  <path class="cls-2"
        d="M60.46,90.2,43,42.79V80.44q0,5.19.9,6.48a4.43,4.43,0,0,0,3.89,1.75h1.6V90.2H33.73V88.66h1.6a4.26,4.26,0,0,0,4.06-2.16q.73-1.33.73-6.07V43.62a15.82,15.82,0,0,0-.66-5.4,4.1,4.1,0,0,0-1.73-2,7.35,7.35,0,0,0-4-.83V33.86H46.49L62.85,77.94,78.94,33.86H91.7v1.54H90.14a4.29,4.29,0,0,0-4.09,2.16q-.73,1.33-.73,6.07V80.44q0,5.19.93,6.48a4.43,4.43,0,0,0,3.89,1.75H91.7V90.2H72.56V88.66h1.6a4.21,4.21,0,0,0,4.06-2.16q.73-1.33.73-6.07V42.79L61.55,90.2Z"
        transform="translate(234 56)"/>
  <path class="cls-1"
        d="M118,32.57q8.78,0,15.19,8.35t6.45,20.78q0,12.84-6.48,21.32T117.5,91.49q-9.31,0-15.66-8.27t-6.32-21.4q0-13.42,7.31-21.9,6.35-7.35,15.19-7.35Zm-.63,3q-6.05,0-9.71,5.61-4.55,7-4.55,20.44,0,13.8,4.72,21.23,3.62,5.65,9.57,5.65,6.35,0,10.47-6.19t4.16-19.53q0-14.46-4.55-21.57A11.44,11.44,0,0,0,117.4,35.6Z"
        transform="translate(234 56)"/>
  <path class="cls-2"
        d="M141.4,33.86h12.23l27.56,42.26V43.62q0-5.19-.93-6.48a4.43,4.43,0,0,0-3.89-1.75h-1.56V33.86H190.5v1.54h-1.6a4.26,4.26,0,0,0-4.06,2.16q-.73,1.33-.73,6.07V91.12h-1.2L153.2,45.74v34.7q0,5.19.9,6.48A4.48,4.48,0,0,0,158,88.66h1.6V90.2H143.89V88.66h1.56a4.28,4.28,0,0,0,4.09-2.16q.73-1.33.73-6.07V41.25a23.1,23.1,0,0,0-3-3.78,9.87,9.87,0,0,0-3-1.7,8.59,8.59,0,0,0-2.93-.37V33.86Z"
        transform="translate(234 56)"/>
  <path class="cls-2"
        d="M230.86,33.86l.5,13.21h-1.26a19.25,19.25,0,0,0-1-5,7.63,7.63,0,0,0-2.76-3.53,7.81,7.81,0,0,0-4.49-1.16H215.5v43q0,5.19.9,6.48a4.48,4.48,0,0,0,3.89,1.75h1.56V90.2H202.73V88.66h1.6a4.26,4.26,0,0,0,4.06-2.16q.73-1.33.73-6.07v-43H203.7a12.27,12.27,0,0,0-4.49.58,6.67,6.67,0,0,0-3,3,14.54,14.54,0,0,0-1.46,6.07h-1.26l.53-13.21Z"
        transform="translate(234 56)"/>
  <path class="cls-2"
        d="M247.28,36.93V59.2h9.91q3.86,0,5.15-1.45,1.73-1.91,1.93-6.73h1.23V70.63h-1.23a26.12,26.12,0,0,0-.93-5.28,4.73,4.73,0,0,0-2-2.29,8.27,8.27,0,0,0-4.19-.83h-9.91V80.81a21.75,21.75,0,0,0,.27,4.57,2.61,2.61,0,0,0,.93,1.29,4.83,4.83,0,0,0,2.53.46h7.65a16.74,16.74,0,0,0,5.55-.66,8.27,8.27,0,0,0,3.32-2.62,33.22,33.22,0,0,0,4.22-7.77h1.33L269.18,90.2H234.45V88.66H236a5.35,5.35,0,0,0,3-1,3.27,3.27,0,0,0,1.43-2,23.27,23.27,0,0,0,.4-5.44V43.66q0-5.36-.86-6.61a4.58,4.58,0,0,0-4-1.66h-1.6V33.86h34.74l.5,12.34h-1.3a22.46,22.46,0,0,0-1.56-6.11,5.67,5.67,0,0,0-2.49-2.53,12.23,12.23,0,0,0-4.69-.62Z"
        transform="translate(234 56)"/>
  <path class="cls-1"
        d="M-16.51,17.36H-30.38L-48-13q-2,.1-3.18.1h-1.07L-53.4-13V5.87q0,6.13,1.07,7.61A5,5,0,0,0-48,15.59h2v1.77H-68.18V15.59h2a4.91,4.91,0,0,0,4.71-2.68q.8-1.48.8-7V-36.07q0-6.13-1.07-7.61a5.1,5.1,0,0,0-4.44-2.11h-2v-1.77h18.92q8.27,0,12.18,1.53a13.92,13.92,0,0,1,6.66,5.55,16.6,16.6,0,0,1,2.76,9.62A17.43,17.43,0,0,1-30.8-20.46q-3.1,4.41-9.65,6.22L-29.72,4.38Q-26,10.8-23.4,12.91a13.8,13.8,0,0,0,6.89,2.68v1.77ZM-53.4-16q.73,0,1.26,0h.88q7.43,0,11.18-4a14.34,14.34,0,0,0,3.79-10.25,15.19,15.19,0,0,0-3.06-9.86,9.75,9.75,0,0,0-8-3.83,27.4,27.4,0,0,0-6,.91v27Z"
        transform="translate(234 56)"/>
  <path class="cls-2"
        d="M-.81-44v25.66H10.61q4.44,0,5.94-1.68,2-2.2,2.22-7.76h1.42v22.6H18.77a30.14,30.14,0,0,0-1.07-6.08,5.45,5.45,0,0,0-2.26-2.63,9.53,9.53,0,0,0-4.83-1H-.81V6.54A25.1,25.1,0,0,0-.5,11.81,3,3,0,0,0,.57,13.29a5.56,5.56,0,0,0,2.91.53h8.81a19.3,19.3,0,0,0,6.4-.77,9.53,9.53,0,0,0,3.83-3,38.27,38.27,0,0,0,4.86-9h1.53L24.44,17.36h-40V15.59h1.84a6.17,6.17,0,0,0,3.49-1.1,3.77,3.77,0,0,0,1.65-2.3,26.82,26.82,0,0,0,.46-6.27V-36.26q0-6.18-1-7.61-1.38-1.91-4.6-1.92h-1.84v-1.77h40L25-33.34H23.52a25.91,25.91,0,0,0-1.8-7,6.54,6.54,0,0,0-2.87-2.92,14.1,14.1,0,0,0-5.4-.72Z"
        transform="translate(234 56)"/>
  <path class="cls-2"
        d="M78.86-49l1.34,20.49H78.86q-2-7.66-5.25-11.54a14.76,14.76,0,0,0-11.91-5.6q-9.92,0-15.09,9.82-4.33,8.28-4.33,19.73A47.93,47.93,0,0,0,45.16.79Q48,8.46,52.67,12a15.7,15.7,0,0,0,9.58,3.54,17.15,17.15,0,0,0,5.55-.91A20,20,0,0,0,73,12V-6.77q0-4.88-.61-6.37a4.39,4.39,0,0,0-1.84-2.3,8.43,8.43,0,0,0-4.37-.81v-1.82H86.26v1.82h-1a4.09,4.09,0,0,0-4.1,2.49q-.77,1.77-.77,7V13.1a34.83,34.83,0,0,1-8.69,4.36,31,31,0,0,1-9.54,1.39q-15.05,0-22.87-12.07A37.54,37.54,0,0,1,33.48-14.1a42,42,0,0,1,3.29-16.42q3.91-9.34,10.72-14.36A22.25,22.25,0,0,1,61-49a21.2,21.2,0,0,1,5.13.57,40.22,40.22,0,0,1,6.59,2.54,9,9,0,0,0,2.87,1,1.44,1.44,0,0,0,1.23-.81,7.63,7.63,0,0,0,.65-3.3Z"
        transform="translate(234 56)"/>
  <path class="cls-2"
        d="M111.58,15.59v1.77H89.32V15.59h1.84a5.08,5.08,0,0,0,4.67-2.35q.92-1.53.92-7.37V-36.07a26.68,26.68,0,0,0-.5-6.51,4.09,4.09,0,0,0-1.57-2.06,6.16,6.16,0,0,0-3.52-1.15H89.32v-1.77h22.25v1.77H109.7a5,5,0,0,0-4.63,2.35q-1,1.53-1,7.37V5.87a26.6,26.6,0,0,0,.5,6.51,4,4,0,0,0,1.61,2.06,6,6,0,0,0,3.49,1.15Z"
        transform="translate(234 56)"/>
  <path class="cls-1"
        d="M142.18-49q10.11,0,17.5,9.62t7.43,23.94q0,14.79-7.47,24.56t-18.08,9.77q-10.73,0-18-9.53t-7.28-24.66q0-15.46,8.43-25.23Q132-49,142.18-49Zm-.73,3.5q-7,0-11.18,6.46Q125-31,125-15.53q0,15.9,5.44,24.47,4.17,6.51,11,6.51,7.31,0,12.07-7.13t4.79-22.5q0-16.66-5.25-24.85a13.18,13.18,0,0,0-11.64-6.51Z"
        transform="translate(234 56)"/>
  <path class="cls-2"
        d="M169.11-47.56h14.1L215,1.13V-36.31q0-6-1.07-7.47a5.1,5.1,0,0,0-4.48-2h-1.8v-1.77h18.08v1.77h-1.84a4.9,4.9,0,0,0-4.67,2.49q-.84,1.53-.84,7V18.41h-1.38L182.7-33.87v40q0,6,1,7.47a5.16,5.16,0,0,0,4.48,2h1.84v1.77H172V15.59h1.8a4.94,4.94,0,0,0,4.71-2.49q.84-1.53.84-7V-39a26.65,26.65,0,0,0-3.45-4.36,11.39,11.39,0,0,0-3.41-2,9.9,9.9,0,0,0-3.37-.43v-1.77Z"
        transform="translate(234 56)"/>
  <path class="cls-2"
        d="M243.19-44v25.66H254.6q4.44,0,5.94-1.68,2-2.2,2.22-7.76h1.42v22.6h-1.42a30.11,30.11,0,0,0-1.07-6.08,5.45,5.45,0,0,0-2.26-2.63,9.53,9.53,0,0,0-4.83-1H243.19V6.54a25.05,25.05,0,0,0,.31,5.27,3,3,0,0,0,1.07,1.48,5.56,5.56,0,0,0,2.91.53h8.81a19.3,19.3,0,0,0,6.4-.77,9.52,9.52,0,0,0,3.83-3,38.26,38.26,0,0,0,4.86-9h1.53l-4.48,16.28h-40V15.59h1.84a6.17,6.17,0,0,0,3.49-1.1,3.77,3.77,0,0,0,1.65-2.3,26.82,26.82,0,0,0,.46-6.27V-36.26q0-6.18-1-7.61-1.38-1.91-4.6-1.92H228.4v-1.77h40L269-33.34h-1.49a25.9,25.9,0,0,0-1.8-7,6.54,6.54,0,0,0-2.87-2.92,14.1,14.1,0,0,0-5.4-.72Z"
        transform="translate(234 56)"/>
  <polygon class="cls-3" points="1.28 1.28 154.19 1.28 154.19 152.27 1.28 152.27 1.28 1.28 1.28 1.28"/>
  <polygon class="cls-4" points="96.5 96.02 146.88 96.02 146.88 145.12 96.5 145.12 96.5 96.02 96.5 96.02"/>
  <polygon class="cls-4" points="8.8 96.02 59.18 96.02 59.18 145.12 8.8 145.12 8.8 96.02 8.8 96.02"/>
  <polygon class="cls-4" points="8.8 9.01 59.18 9.01 59.18 58.11 8.8 58.11 8.8 9.01 8.8 9.01"/>
  <polygon class="cls-4" points="96.45 9.01 146.83 9.01 146.83 58.11 96.45 58.11 96.45 9.01 96.45 9.01"/>
  <polygon class="cls-5"
           points="39.66 17.6 116.28 17.6 120.92 32.15 106.84 32.15 109.24 25.43 46.38 25.43 48.78 31.99 34.55 31.99 39.66 17.6 39.66 17.6"/>
  <polygon class="cls-5" points="73.25 25.75 71.01 32.04 84.77 32.04 82.37 25.59 73.25 25.75 73.25 25.75"/>
</svg>
